<svg xmlns="http://www.w3.org/2000/svg" viewBox="0 0 1672 860" role="img" aria-label="Cutaway of an ant colony under a work site: eight assistants each working in its own chamber while the owner is on the job"><rect width="1672" height="860" fill="#0b1712"/><rect x="0" y="0" width="1672" height="210" fill="#ebe8e2"/><g fill="#0f5132"><rect x="200" y="96" width="18" height="114"/><circle cx="209" cy="80" r="62"/><circle cx="160" cy="118" r="40"/><circle cx="262" cy="112" r="44"/></g><g transform="translate(1200 132)"><rect x="0" y="20" width="170" height="52" rx="8" fill="#0f2a1d"/><rect x="118" y="0" width="68" height="72" rx="8" fill="#0f2a1d"/><rect x="130" y="10" width="40" height="22" rx="3" fill="#ebe8e2"/><circle cx="40" cy="74" r="14" fill="#0b1712"/><circle cx="150" cy="74" r="14" fill="#0b1712"/><text x="20" y="54" font-family="Onest, sans-serif" font-weight="800" font-size="18" fill="#3ddcae">ON THE JOB</text></g><path d="M740 210 q40 -34 80 0z" fill="#c8c1b3"/><path d="M780 220 C 760 300, 560 330, 480 400 M780 220 C 790 330, 760 420, 760 520 M480 400 C 380 420, 260 430, 210 470 M760 520 C 900 470, 980 430, 1040 420 M1040 420 C 1150 450, 1250 500, 1300 540 M210 470 C 230 580, 300 640, 330 700 M760 520 C 820 600, 870 670, 900 720 M1300 540 C 1360 620, 1400 700, 1420 760" stroke="#173528" stroke-width="40" fill="none" stroke-linecap="round"/><g transform="translate(210 470)"><ellipse cx="0" cy="0" rx="104" ry="64" fill="#173528"/><g transform="translate(-40 -52)"><svg x="0" y="0" viewBox="0 0 120 120" width="80" height="80" aria-label="Callback"><rect width="120" height="120" rx="26" fill="#ebe8e2"/><g transform="translate(8 10) scale(0.95)"><g stroke="#0f5132" stroke-width="4" stroke-linecap="round" fill="none"><path d="M24 31 15 9M38 31l9-22"/></g><circle cx="15" cy="7.5" r="3.6" fill="#0f5132"/><circle cx="47" cy="7.5" r="3.6" fill="#0f5132"/><circle cx="31" cy="57" r="29" fill="#3ddcae"/><circle cx="24.0" cy="53" r="4.3" fill="#0f5132"/><circle cx="43.0" cy="53" r="4.3" fill="#0f5132"/></g><g transform="translate(66 62)"><rect x="0" y="0" width="34" height="50" rx="8" fill="#0f2a1d"/><rect x="5" y="7" width="24" height="30" rx="3" fill="#ebe8e2"/><circle cx="17" cy="43" r="3" fill="#3ddcae"/><path d="M30 -10a14 14 0 0 1 14 14" stroke="#0f2a1d" stroke-width="4" fill="none" stroke-linecap="round"/><path d="M40 6l4 -2 2 4" stroke="#0f2a1d" stroke-width="4" fill="none" stroke-linecap="round" stroke-linejoin="round"/></g></svg></g><text x="0" y="48" text-anchor="middle" font-family="Onest, sans-serif" font-weight="700" font-size="17" fill="#ebe8e2">The Callback</text></g><g transform="translate(470 400)"><ellipse cx="0" cy="0" rx="104" ry="64" fill="#173528"/><g transform="translate(-40 -52)"><svg x="0" y="0" viewBox="0 0 120 120" width="80" height="80" aria-label="Responder"><rect width="120" height="120" rx="26" fill="#ebe8e2"/><g transform="translate(8 10) scale(0.95)"><g stroke="#0f5132" stroke-width="4" stroke-linecap="round" fill="none"><path d="M24 31 15 9M38 31l9-22"/></g><circle cx="15" cy="7.5" r="3.6" fill="#0f5132"/><circle cx="47" cy="7.5" r="3.6" fill="#0f5132"/><circle cx="31" cy="57" r="29" fill="#3ddcae"/><circle cx="24.0" cy="53" r="4.3" fill="#0f5132"/><circle cx="43.0" cy="53" r="4.3" fill="#0f5132"/></g><g transform="translate(62 60)"><path d="M0 8a8 8 0 0 1 8-8h34a8 8 0 0 1 8 8v22a8 8 0 0 1-8 8H18l-10 10v-10H8a8 8 0 0 1-8-8z" fill="#0f2a1d"/><path d="M28 6 18 22h9l-4 12 12-17h-9z" fill="#3ddcae"/></g></svg></g><text x="0" y="48" text-anchor="middle" font-family="Onest, sans-serif" font-weight="700" font-size="17" fill="#ebe8e2">The Responder</text></g><g transform="translate(760 520)"><ellipse cx="0" cy="0" rx="104" ry="64" fill="#173528"/><g transform="translate(-40 -52)"><svg x="0" y="0" viewBox="0 0 120 120" width="80" height="80" aria-label="Scheduler"><rect width="120" height="120" rx="26" fill="#ebe8e2"/><g transform="translate(8 10) scale(0.95)"><g stroke="#0f5132" stroke-width="4" stroke-linecap="round" fill="none"><path d="M24 31 15 9M38 31l9-22"/></g><circle cx="15" cy="7.5" r="3.6" fill="#0f5132"/><circle cx="47" cy="7.5" r="3.6" fill="#0f5132"/><circle cx="31" cy="57" r="29" fill="#3ddcae"/><circle cx="24.0" cy="53" r="4.3" fill="#0f5132"/><circle cx="43.0" cy="53" r="4.3" fill="#0f5132"/></g><g transform="translate(64 62)"><rect x="0" y="6" width="46" height="42" rx="6" fill="#0f2a1d"/><rect x="0" y="6" width="46" height="12" rx="6" fill="#0f5132"/><rect x="10" y="0" width="5" height="12" rx="2.5" fill="#0f2a1d"/><rect x="31" y="0" width="5" height="12" rx="2.5" fill="#0f2a1d"/><path d="M13 32l6 6 13-13" stroke="#3ddcae" stroke-width="5" fill="none" stroke-linecap="round" stroke-linejoin="round"/></g></svg></g><text x="0" y="48" text-anchor="middle" font-family="Onest, sans-serif" font-weight="700" font-size="17" fill="#ebe8e2">The Scheduler</text></g><g transform="translate(1040 420)"><ellipse cx="0" cy="0" rx="104" ry="64" fill="#173528"/><g transform="translate(-40 -52)"><svg x="0" y="0" viewBox="0 0 120 120" width="80" height="80" aria-label="Reviewer"><rect width="120" height="120" rx="26" fill="#ebe8e2"/><g transform="translate(8 10) scale(0.95)"><g stroke="#0f5132" stroke-width="4" stroke-linecap="round" fill="none"><path d="M24 31 15 9M38 31l9-22"/></g><circle cx="15" cy="7.5" r="3.6" fill="#0f5132"/><circle cx="47" cy="7.5" r="3.6" fill="#0f5132"/><circle cx="31" cy="57" r="29" fill="#3ddcae"/><circle cx="24.0" cy="53" r="4.3" fill="#0f5132"/><circle cx="43.0" cy="53" r="4.3" fill="#0f5132"/></g><g transform="translate(64 60)"><path d="M24 0l7 15 16 2-12 11 3 16-14-8-14 8 3-16L1 17l16-2z" fill="#0f2a1d"/><path d="M24 12l3 7 7 1-5 5 1 7-6-3-6 3 1-7-5-5 7-1z" fill="#3ddcae"/></g></svg></g><text x="0" y="48" text-anchor="middle" font-family="Onest, sans-serif" font-weight="700" font-size="17" fill="#ebe8e2">The Reviewer</text></g><g transform="translate(1300 540)"><ellipse cx="0" cy="0" rx="104" ry="64" fill="#173528"/><g transform="translate(-40 -52)"><svg x="0" y="0" viewBox="0 0 120 120" width="80" height="80" aria-label="Receptionist"><rect width="120" height="120" rx="26" fill="#ebe8e2"/><g transform="translate(20 12) scale(1.05)"><g stroke="#0f5132" stroke-width="4" stroke-linecap="round" fill="none"><path d="M24 31 15 9M38 31l9-22"/></g><circle cx="15" cy="7.5" r="3.6" fill="#0f5132"/><circle cx="47" cy="7.5" r="3.6" fill="#0f5132"/><circle cx="31" cy="57" r="29" fill="#3ddcae"/><circle cx="21.5" cy="53" r="4.3" fill="#0f5132"/><circle cx="40.5" cy="53" r="4.3" fill="#0f5132"/></g><path d="M30 70a24 24 0 0 1 48 0" stroke="#0f2a1d" stroke-width="6" fill="none" stroke-linecap="round" transform="translate(-3 -5)"/><rect x="22" y="58" width="11" height="18" rx="5" fill="#0f2a1d"/><rect x="72" y="58" width="11" height="18" rx="5" fill="#0f2a1d"/><path d="M77 76q0 14-16 16" stroke="#0f2a1d" stroke-width="4" fill="none" stroke-linecap="round"/><circle cx="60" cy="92" r="5" fill="#0f2a1d"/></svg></g><text x="0" y="48" text-anchor="middle" font-family="Onest, sans-serif" font-weight="700" font-size="17" fill="#ebe8e2">The Receptionist</text></g><g transform="translate(330 700)"><ellipse cx="0" cy="0" rx="104" ry="64" fill="#173528"/><g transform="translate(-40 -52)"><svg x="0" y="0" viewBox="0 0 120 120" width="80" height="80" aria-label="Scout"><rect width="120" height="120" rx="26" fill="#ebe8e2"/><g transform="translate(8 10) scale(0.95)"><g stroke="#0f5132" stroke-width="4" stroke-linecap="round" fill="none"><path d="M24 31 15 9M38 31l9-22"/></g><circle cx="15" cy="7.5" r="3.6" fill="#0f5132"/><circle cx="47" cy="7.5" r="3.6" fill="#0f5132"/><circle cx="31" cy="57" r="29" fill="#3ddcae"/><circle cx="24.0" cy="53" r="4.3" fill="#0f5132"/><circle cx="43.0" cy="53" r="4.3" fill="#0f5132"/></g><g transform="translate(64 60)"><circle cx="18" cy="18" r="15" fill="#ebe8e2" stroke="#0f2a1d" stroke-width="6"/><path d="M29 29l15 15" stroke="#0f2a1d" stroke-width="8" stroke-linecap="round"/><circle cx="18" cy="18" r="6" fill="#3ddcae"/></g></svg></g><text x="0" y="48" text-anchor="middle" font-family="Onest, sans-serif" font-weight="700" font-size="17" fill="#ebe8e2">The Scout</text></g><g transform="translate(900 720)"><ellipse cx="0" cy="0" rx="104" ry="64" fill="#173528"/><g transform="translate(-40 -52)"><svg x="0" y="0" viewBox="0 0 120 120" width="80" height="80" aria-label="Reminder"><rect width="120" height="120" rx="26" fill="#ebe8e2"/><g transform="translate(8 10) scale(0.95)"><g stroke="#0f5132" stroke-width="4" stroke-linecap="round" fill="none"><path d="M24 31 15 9M38 31l9-22"/></g><circle cx="15" cy="7.5" r="3.6" fill="#0f5132"/><circle cx="47" cy="7.5" r="3.6" fill="#0f5132"/><circle cx="31" cy="57" r="29" fill="#3ddcae"/><circle cx="24.0" cy="53" r="4.3" fill="#0f5132"/><circle cx="43.0" cy="53" r="4.3" fill="#0f5132"/></g><g transform="translate(66 60)"><path d="M20 2a14 14 0 0 1 14 14v12l6 8H0l6-8V16A14 14 0 0 1 20 2z" fill="#0f2a1d"/><circle cx="20" cy="42" r="5" fill="#0f2a1d"/><circle cx="32" cy="8" r="6" fill="#3ddcae" stroke="#ebe8e2" stroke-width="2"/></g></svg></g><text x="0" y="48" text-anchor="middle" font-family="Onest, sans-serif" font-weight="700" font-size="17" fill="#ebe8e2">The Reminder</text></g><g transform="translate(1420 760)"><ellipse cx="0" cy="0" rx="104" ry="64" fill="#173528"/><g transform="translate(-40 -52)"><svg x="0" y="0" viewBox="0 0 120 120" width="80" height="80" aria-label="Promoter"><rect width="120" height="120" rx="26" fill="#ebe8e2"/><g transform="translate(8 10) scale(0.95)"><g stroke="#0f5132" stroke-width="4" stroke-linecap="round" fill="none"><path d="M24 31 15 9M38 31l9-22"/></g><circle cx="15" cy="7.5" r="3.6" fill="#0f5132"/><circle cx="47" cy="7.5" r="3.6" fill="#0f5132"/><circle cx="31" cy="57" r="29" fill="#3ddcae"/><circle cx="24.0" cy="53" r="4.3" fill="#0f5132"/><circle cx="43.0" cy="53" r="4.3" fill="#0f5132"/></g><g transform="translate(62 62)"><path d="M4 16h10l26-14v44L14 32H4a4 4 0 0 1-4-4v-8a4 4 0 0 1 4-4z" fill="#0f2a1d"/><rect x="8" y="32" width="8" height="14" rx="3" fill="#0f2a1d"/><path d="M46 14q6 10 0 20" stroke="#3ddcae" stroke-width="4" fill="none" stroke-linecap="round"/></g></svg></g><text x="0" y="48" text-anchor="middle" font-family="Onest, sans-serif" font-weight="700" font-size="17" fill="#ebe8e2">The Promoter</text></g><text x="836" y="836" text-anchor="middle" font-family="Onest, sans-serif" font-size="18" fill="#9db0a4">Nothing gets confirmed to a customer without your OK.</text></svg>
